<svg xmlns="http://www.w3.org/2000/svg" xmlns:xlink="http://www.w3.org/1999/xlink" width="500" zoomAndPan="magnify" viewBox="0 0 375 374.999991" height="500" preserveAspectRatio="xMidYMid meet" version="1.0"><defs><clipPath id="4da7bcc9f5"><path d="M 40.867188 40.867188 L 334.117188 40.867188 L 334.117188 334.117188 L 40.867188 334.117188 Z M 40.867188 40.867188 " clip-rule="nonzero"/></clipPath></defs><g clip-path="url(#4da7bcc9f5)"><path fill="#865be2" d="M 226.457031 40.867188 L 148.535156 40.867188 C 146.773438 40.867188 145.011719 40.910156 143.25 40.996094 C 141.492188 41.082031 139.734375 41.210938 137.980469 41.382812 C 136.226562 41.558594 134.480469 41.773438 132.734375 42.03125 C 130.992188 42.289062 129.257812 42.589844 127.527344 42.933594 C 125.800781 43.277344 124.082031 43.664062 122.371094 44.09375 C 120.664062 44.519531 118.964844 44.988281 117.28125 45.5 C 115.59375 46.011719 113.921875 46.566406 112.261719 47.160156 C 110.601562 47.753906 108.960938 48.386719 107.332031 49.0625 C 105.703125 49.734375 104.09375 50.449219 102.5 51.203125 C 100.90625 51.957031 99.332031 52.75 97.78125 53.578125 C 96.226562 54.410156 94.691406 55.277344 93.179688 56.183594 C 91.671875 57.089844 90.183594 58.03125 88.714844 59.011719 C 87.25 59.988281 85.8125 61.003906 84.394531 62.054688 C 82.980469 63.105469 81.59375 64.1875 80.230469 65.304688 C 78.867188 66.421875 77.535156 67.574219 76.226562 68.757812 C 74.921875 69.941406 73.648438 71.15625 72.402344 72.402344 C 71.15625 73.648438 69.941406 74.921875 68.757812 76.226562 C 67.574219 77.535156 66.421875 78.867188 65.304688 80.230469 C 64.1875 81.59375 63.105469 82.980469 62.054688 84.394531 C 61.003906 85.8125 59.988281 87.25 59.011719 88.714844 C 58.03125 90.183594 57.089844 91.671875 56.183594 93.179688 C 55.277344 94.691406 54.410156 96.226562 53.578125 97.78125 C 52.75 99.332031 51.957031 100.90625 51.203125 102.5 C 50.449219 104.09375 49.734375 105.703125 49.0625 107.332031 C 48.386719 108.960938 47.753906 110.601562 47.160156 112.261719 C 46.566406 113.921875 46.011719 115.59375 45.5 117.28125 C 44.988281 118.964844 44.519531 120.664062 44.09375 122.371094 C 43.664062 124.082031 43.277344 125.800781 42.933594 127.527344 C 42.589844 129.257812 42.289062 130.992188 42.03125 132.734375 C 41.773438 134.480469 41.558594 136.226562 41.382812 137.980469 C 41.210938 139.734375 41.082031 141.492188 40.996094 143.25 C 40.910156 145.011719 40.867188 146.773438 40.867188 148.535156 L 40.867188 226.457031 C 40.867188 228.21875 40.910156 229.980469 40.996094 231.742188 C 41.082031 233.5 41.210938 235.257812 41.382812 237.011719 C 41.558594 238.765625 41.773438 240.511719 42.03125 242.257812 C 42.289062 244 42.589844 245.734375 42.933594 247.464844 C 43.277344 249.191406 43.664062 250.910156 44.09375 252.621094 C 44.519531 254.328125 44.988281 256.027344 45.5 257.710938 C 46.011719 259.398438 46.566406 261.070312 47.160156 262.730469 C 47.753906 264.390625 48.386719 266.035156 49.0625 267.660156 C 49.734375 269.289062 50.449219 270.898438 51.203125 272.492188 C 51.957031 274.085938 52.75 275.660156 53.578125 277.214844 C 54.410156 278.765625 55.277344 280.300781 56.183594 281.8125 C 57.089844 283.324219 58.03125 284.8125 59.011719 286.277344 C 59.988281 287.742188 61.003906 289.179688 62.054688 290.597656 C 63.105469 292.011719 64.1875 293.402344 65.304688 294.761719 C 66.421875 296.125 67.574219 297.457031 68.757812 298.765625 C 69.941406 300.070312 71.15625 301.34375 72.402344 302.589844 C 73.648438 303.835938 74.921875 305.050781 76.226562 306.234375 C 77.535156 307.417969 78.867188 308.570312 80.230469 309.6875 C 81.59375 310.804688 82.980469 311.890625 84.394531 312.9375 C 85.8125 313.988281 87.25 315.003906 88.714844 315.980469 C 90.183594 316.960938 91.671875 317.902344 93.179688 318.808594 C 94.691406 319.714844 96.226562 320.582031 97.78125 321.414062 C 99.332031 322.246094 100.90625 323.035156 102.5 323.789062 C 104.09375 324.542969 105.703125 325.257812 107.332031 325.929688 C 108.960938 326.605469 110.601562 327.238281 112.261719 327.832031 C 113.921875 328.425781 115.59375 328.980469 117.28125 329.492188 C 118.964844 330.003906 120.664062 330.472656 122.371094 330.902344 C 124.082031 331.328125 125.800781 331.714844 127.527344 332.058594 C 129.257812 332.402344 130.992188 332.703125 132.734375 332.960938 C 134.480469 333.21875 136.226562 333.4375 137.980469 333.609375 C 139.734375 333.78125 141.492188 333.910156 143.25 333.996094 C 145.011719 334.082031 146.773438 334.128906 148.535156 334.128906 L 226.457031 334.128906 C 228.21875 334.128906 229.980469 334.082031 231.742188 333.996094 C 233.5 333.910156 235.257812 333.78125 237.011719 333.609375 C 238.765625 333.4375 240.511719 333.21875 242.257812 332.960938 C 244 332.703125 245.734375 332.402344 247.464844 332.058594 C 249.191406 331.714844 250.910156 331.328125 252.621094 330.902344 C 254.328125 330.472656 256.027344 330.003906 257.714844 329.492188 C 259.398438 328.980469 261.070312 328.425781 262.730469 327.832031 C 264.390625 327.238281 266.035156 326.605469 267.660156 325.929688 C 269.289062 325.257812 270.898438 324.542969 272.492188 323.789062 C 274.085938 323.035156 275.660156 322.246094 277.214844 321.414062 C 278.765625 320.582031 280.300781 319.714844 281.8125 318.808594 C 283.324219 317.902344 284.8125 316.960938 286.277344 315.980469 C 287.742188 315.003906 289.179688 313.988281 290.597656 312.9375 C 292.011719 311.890625 293.402344 310.804688 294.761719 309.6875 C 296.125 308.570312 297.457031 307.417969 298.765625 306.234375 C 300.070312 305.050781 301.347656 303.835938 302.589844 302.589844 C 303.835938 301.347656 305.050781 300.070312 306.234375 298.765625 C 307.417969 297.457031 308.570312 296.125 309.6875 294.761719 C 310.804688 293.402344 311.890625 292.011719 312.9375 290.597656 C 313.988281 289.179688 315.003906 287.742188 315.980469 286.277344 C 316.960938 284.8125 317.902344 283.324219 318.808594 281.8125 C 319.714844 280.300781 320.582031 278.765625 321.414062 277.214844 C 322.246094 275.660156 323.035156 274.085938 323.789062 272.492188 C 324.542969 270.898438 325.257812 269.289062 325.929688 267.660156 C 326.605469 266.035156 327.238281 264.390625 327.832031 262.730469 C 328.425781 261.070312 328.980469 259.398438 329.492188 257.714844 C 330.003906 256.027344 330.472656 254.328125 330.902344 252.621094 C 331.328125 250.910156 331.714844 249.191406 332.058594 247.464844 C 332.402344 245.734375 332.703125 244 332.960938 242.257812 C 333.21875 240.511719 333.4375 238.765625 333.609375 237.011719 C 333.78125 235.257812 333.910156 233.5 333.996094 231.742188 C 334.082031 229.980469 334.128906 228.21875 334.128906 226.457031 L 334.128906 148.535156 C 334.128906 146.773438 334.082031 145.011719 333.996094 143.25 C 333.910156 141.492188 333.78125 139.734375 333.609375 137.980469 C 333.4375 136.226562 333.21875 134.480469 332.960938 132.734375 C 332.703125 130.992188 332.402344 129.257812 332.058594 127.527344 C 331.714844 125.800781 331.328125 124.082031 330.902344 122.371094 C 330.472656 120.664062 330.003906 118.964844 329.492188 117.28125 C 328.980469 115.59375 328.425781 113.921875 327.832031 112.261719 C 327.238281 110.601562 326.605469 108.960938 325.929688 107.332031 C 325.257812 105.703125 324.542969 104.09375 323.789062 102.5 C 323.035156 100.90625 322.246094 99.332031 321.414062 97.78125 C 320.582031 96.226562 319.714844 94.691406 318.808594 93.179688 C 317.902344 91.671875 316.960938 90.183594 315.980469 88.714844 C 315.003906 87.25 313.988281 85.8125 312.9375 84.394531 C 311.890625 82.980469 310.804688 81.59375 309.6875 80.230469 C 308.570312 78.867188 307.417969 77.535156 306.234375 76.226562 C 305.050781 74.921875 303.835938 73.648438 302.589844 72.402344 C 301.34375 71.15625 300.070312 69.941406 298.765625 68.757812 C 297.457031 67.574219 296.125 66.421875 294.761719 65.304688 C 293.402344 64.1875 292.011719 63.105469 290.597656 62.054688 C 289.179688 61.003906 287.742188 59.988281 286.277344 59.011719 C 284.8125 58.03125 283.324219 57.089844 281.8125 56.183594 C 280.300781 55.277344 278.765625 54.410156 277.214844 53.578125 C 275.660156 52.75 274.085938 51.957031 272.492188 51.203125 C 270.898438 50.449219 269.289062 49.734375 267.660156 49.0625 C 266.035156 48.386719 264.390625 47.753906 262.730469 47.160156 C 261.070312 46.566406 259.398438 46.011719 257.714844 45.5 C 256.027344 44.988281 254.328125 44.519531 252.621094 44.09375 C 250.910156 43.664062 249.191406 43.277344 247.464844 42.933594 C 245.734375 42.589844 244 42.289062 242.257812 42.03125 C 240.511719 41.773438 238.765625 41.558594 237.011719 41.382812 C 235.257812 41.210938 233.5 41.082031 231.742188 40.996094 C 229.980469 40.910156 228.21875 40.867188 226.457031 40.867188 Z M 183.777344 271.285156 C 158.378906 269.921875 114.179688 248.558594 114.179688 195.824219 L 114.179688 119.417969 C 114.179688 118.386719 114.28125 117.363281 114.484375 116.351562 C 114.683594 115.339844 114.980469 114.359375 115.375 113.40625 C 115.773438 112.453125 116.253906 111.546875 116.828125 110.691406 C 117.402344 109.832031 118.054688 109.039062 118.78125 108.308594 C 119.511719 107.578125 120.304688 106.929688 121.164062 106.355469 C 122.019531 105.78125 122.925781 105.296875 123.878906 104.902344 C 124.832031 104.507812 125.816406 104.210938 126.828125 104.007812 C 127.839844 103.808594 128.859375 103.707031 129.890625 103.707031 L 140.363281 103.707031 C 141.398438 103.707031 142.417969 103.808594 143.429688 104.007812 C 144.441406 104.210938 145.425781 104.507812 146.378906 104.902344 C 147.332031 105.296875 148.234375 105.78125 149.09375 106.355469 C 149.949219 106.929688 150.746094 107.578125 151.472656 108.308594 C 152.203125 109.039062 152.855469 109.832031 153.429688 110.6875 C 154 111.546875 154.484375 112.453125 154.878906 113.40625 C 155.273438 114.359375 155.574219 115.339844 155.773438 116.351562 C 155.976562 117.363281 156.074219 118.386719 156.074219 119.417969 L 156.074219 196.871094 C 156.0625 197.832031 156.089844 198.789062 156.160156 199.75 C 156.234375 200.707031 156.347656 201.660156 156.503906 202.609375 C 156.664062 203.554688 156.863281 204.496094 157.105469 205.425781 C 157.34375 206.355469 157.628906 207.273438 157.953125 208.179688 C 158.277344 209.082031 158.640625 209.972656 159.042969 210.84375 C 159.445312 211.714844 159.886719 212.570312 160.367188 213.402344 C 160.847656 214.234375 161.363281 215.042969 161.914062 215.828125 C 162.46875 216.617188 163.054688 217.375 163.675781 218.109375 C 164.296875 218.84375 164.949219 219.546875 165.632812 220.222656 C 166.316406 220.898438 167.027344 221.542969 167.769531 222.152344 C 168.511719 222.765625 169.277344 223.339844 170.070312 223.882812 C 170.863281 224.425781 171.679688 224.933594 172.519531 225.402344 C 173.359375 225.871094 174.214844 226.300781 175.09375 226.695312 C 175.96875 227.085938 176.863281 227.441406 177.773438 227.753906 C 178.679688 228.066406 179.601562 228.335938 180.535156 228.566406 C 181.46875 228.796875 182.410156 228.984375 183.359375 229.128906 C 184.332031 229.261719 185.308594 229.347656 186.289062 229.386719 C 187.265625 229.425781 188.246094 229.421875 189.226562 229.367188 C 190.207031 229.316406 191.179688 229.21875 192.152344 229.078125 C 193.121094 228.933594 194.082031 228.746094 195.035156 228.511719 C 195.988281 228.28125 196.929688 228.003906 197.855469 227.683594 C 198.78125 227.359375 199.691406 226.996094 200.585938 226.589844 C 201.476562 226.183594 202.351562 225.738281 203.203125 225.25 C 204.050781 224.761719 204.878906 224.234375 205.679688 223.667969 C 206.480469 223.105469 207.253906 222.503906 208 221.863281 C 208.746094 221.226562 209.460938 220.554688 210.140625 219.851562 C 210.824219 219.148438 211.472656 218.410156 212.085938 217.644531 C 212.699219 216.882812 213.277344 216.089844 213.816406 215.269531 C 214.355469 214.449219 214.855469 213.609375 215.316406 212.742188 C 215.777344 211.875 216.195312 210.988281 216.570312 210.085938 C 216.949219 209.179688 217.285156 208.257812 217.574219 207.320312 C 217.867188 206.382812 218.113281 205.4375 218.316406 204.476562 C 218.519531 203.515625 218.675781 202.550781 218.789062 201.574219 C 218.898438 200.601562 218.964844 199.625 218.984375 198.640625 C 219.003906 197.660156 218.980469 196.683594 218.910156 195.703125 C 218.835938 194.726562 218.71875 193.753906 218.558594 192.785156 C 218.394531 191.816406 218.1875 190.859375 217.9375 189.914062 C 217.683594 188.964844 217.386719 188.03125 217.046875 187.109375 C 216.707031 186.191406 216.328125 185.289062 215.902344 184.402344 C 215.476562 183.519531 215.011719 182.65625 214.507812 181.816406 C 214.003906 180.972656 213.460938 180.160156 212.878906 179.367188 C 212.296875 178.578125 211.679688 177.816406 211.027344 177.085938 C 210.375 176.351562 209.691406 175.652344 208.972656 174.984375 C 208.253906 174.316406 207.503906 173.683594 206.726562 173.085938 C 205.949219 172.488281 205.148438 171.925781 204.316406 171.40625 C 203.488281 170.882812 202.632812 170.398438 201.757812 169.957031 C 200.882812 169.511719 199.988281 169.113281 199.078125 168.753906 C 198.164062 168.394531 197.238281 168.078125 196.292969 167.804688 C 195.675781 167.640625 195.070312 167.421875 194.484375 167.160156 C 193.902344 166.894531 193.339844 166.585938 192.804688 166.230469 C 192.269531 165.875 191.769531 165.476562 191.296875 165.039062 C 190.824219 164.605469 190.394531 164.132812 190 163.625 C 189.605469 163.117188 189.253906 162.582031 188.945312 162.019531 C 188.640625 161.453125 188.378906 160.871094 188.167969 160.265625 C 187.953125 159.65625 187.789062 159.039062 187.679688 158.40625 C 187.566406 157.773438 187.503906 157.136719 187.496094 156.496094 L 187.496094 137.539062 C 187.492188 137.113281 187.515625 136.6875 187.558594 136.261719 C 187.601562 135.839844 187.667969 135.421875 187.757812 135.003906 C 187.847656 134.589844 187.960938 134.179688 188.097656 133.773438 C 188.230469 133.371094 188.386719 132.976562 188.566406 132.589844 C 188.742188 132.203125 188.941406 131.828125 189.160156 131.460938 C 189.378906 131.097656 189.617188 130.746094 189.875 130.40625 C 190.132812 130.066406 190.410156 129.742188 190.703125 129.433594 C 190.992188 129.125 191.304688 128.832031 191.628906 128.558594 C 191.953125 128.285156 192.292969 128.027344 192.644531 127.789062 C 192.996094 127.550781 193.363281 127.332031 193.738281 127.136719 C 194.117188 126.9375 194.5 126.761719 194.898438 126.605469 C 195.292969 126.449219 195.699219 126.3125 196.109375 126.203125 C 196.519531 126.089844 196.933594 126 197.355469 125.9375 C 197.773438 125.871094 198.199219 125.824219 198.625 125.804688 C 199.046875 125.785156 199.472656 125.789062 199.898438 125.816406 C 200.324219 125.839844 200.746094 125.890625 201.164062 125.964844 C 203.433594 126.378906 205.679688 126.898438 207.902344 127.523438 C 210.125 128.148438 212.3125 128.875 214.464844 129.707031 C 216.617188 130.539062 218.722656 131.472656 220.789062 132.503906 C 222.855469 133.535156 224.863281 134.660156 226.824219 135.878906 C 228.78125 137.101562 230.679688 138.414062 232.511719 139.8125 C 234.347656 141.210938 236.113281 142.695312 237.804688 144.261719 C 239.5 145.828125 241.117188 147.472656 242.65625 149.191406 C 244.195312 150.910156 245.652344 152.699219 247.019531 154.554688 C 248.390625 156.414062 249.671875 158.332031 250.859375 160.308594 C 252.050781 162.285156 253.144531 164.316406 254.140625 166.394531 C 255.140625 168.476562 256.035156 170.601562 256.835938 172.765625 C 257.632812 174.929688 258.324219 177.128906 258.914062 179.359375 C 259.503906 181.59375 259.988281 183.847656 260.363281 186.121094 C 260.742188 188.398438 261.007812 190.6875 261.171875 192.992188 C 261.332031 195.292969 261.382812 197.597656 261.324219 199.90625 C 261.269531 202.210938 261.101562 204.511719 260.828125 206.804688 C 260.554688 209.09375 260.171875 211.367188 259.683594 213.625 C 259.195312 215.878906 258.601562 218.105469 257.902344 220.304688 C 257.203125 222.503906 256.402344 224.664062 255.5 226.789062 C 254.59375 228.914062 253.59375 230.988281 252.496094 233.019531 C 251.394531 235.046875 250.203125 237.019531 248.917969 238.9375 C 247.632812 240.851562 246.257812 242.707031 244.796875 244.492188 C 243.335938 246.277344 241.796875 247.992188 240.175781 249.632812 C 238.550781 251.273438 236.855469 252.835938 235.085938 254.316406 C 233.316406 255.796875 231.480469 257.191406 229.578125 258.5 C 227.675781 259.808594 225.71875 261.023438 223.703125 262.148438 C 221.6875 263.269531 219.621094 264.292969 217.507812 265.222656 C 215.394531 266.152344 213.242188 266.976562 211.050781 267.703125 C 208.859375 268.425781 206.640625 269.046875 204.390625 269.558594 C 202.140625 270.074219 199.871094 270.484375 197.585938 270.785156 C 195.296875 271.085938 193 271.277344 190.695312 271.359375 C 188.386719 271.445312 186.082031 271.417969 183.777344 271.285156 Z M 183.777344 271.285156 " fill-opacity="1" fill-rule="nonzero"/></g></svg>