<svg xmlns="http://www.w3.org/2000/svg" xmlns:xlink="http://www.w3.org/1999/xlink" width="800" zoomAndPan="magnify" viewBox="0 0 600 89.999999" height="120" preserveAspectRatio="xMidYMid meet" version="1.0"><defs><g/><clipPath id="5c2c3c81cf"><path d="M 132.933594 3.65625 L 215.433594 3.65625 L 215.433594 86.15625 L 132.933594 86.15625 Z M 132.933594 3.65625 " clip-rule="nonzero"/></clipPath></defs><g clip-path="url(#5c2c3c81cf)"><path fill="#8c52ff" d="M 185.261719 3.65625 L 163.292969 3.65625 C 162.296875 3.65625 161.304688 3.703125 160.316406 3.800781 C 159.328125 3.898438 158.34375 4.046875 157.367188 4.238281 C 156.394531 4.433594 155.429688 4.675781 154.480469 4.964844 C 153.527344 5.25 152.59375 5.585938 151.675781 5.964844 C 150.753906 6.347656 149.859375 6.773438 148.980469 7.242188 C 148.105469 7.710938 147.253906 8.21875 146.425781 8.773438 C 145.597656 9.324219 144.800781 9.914062 144.03125 10.546875 C 143.265625 11.175781 142.527344 11.84375 141.824219 12.546875 C 141.121094 13.25 140.457031 13.984375 139.824219 14.753906 C 139.195312 15.523438 138.601562 16.320312 138.050781 17.148438 C 137.496094 17.972656 136.988281 18.828125 136.519531 19.703125 C 136.050781 20.578125 135.625 21.476562 135.246094 22.394531 C 134.863281 23.316406 134.53125 24.25 134.242188 25.203125 C 133.953125 26.152344 133.710938 27.117188 133.515625 28.089844 C 133.324219 29.066406 133.175781 30.046875 133.078125 31.039062 C 132.980469 32.027344 132.933594 33.019531 132.933594 34.015625 L 132.933594 55.984375 C 132.933594 56.980469 132.980469 57.972656 133.078125 58.960938 C 133.175781 59.949219 133.324219 60.933594 133.515625 61.90625 C 133.710938 62.882812 133.953125 63.847656 134.242188 64.796875 C 134.53125 65.75 134.863281 66.683594 135.246094 67.601562 C 135.625 68.519531 136.050781 69.417969 136.519531 70.296875 C 136.988281 71.171875 137.496094 72.023438 138.050781 72.851562 C 138.601562 73.679688 139.195312 74.476562 139.824219 75.242188 C 140.457031 76.011719 141.121094 76.75 141.824219 77.453125 C 142.527344 78.15625 143.265625 78.820312 144.03125 79.453125 C 144.800781 80.082031 145.597656 80.675781 146.425781 81.226562 C 147.253906 81.78125 148.105469 82.289062 148.980469 82.757812 C 149.859375 83.226562 150.753906 83.652344 151.675781 84.03125 C 152.59375 84.414062 153.527344 84.746094 154.480469 85.035156 C 155.429688 85.324219 156.394531 85.566406 157.367188 85.761719 C 158.34375 85.953125 159.328125 86.097656 160.316406 86.195312 C 161.304688 86.292969 162.296875 86.34375 163.292969 86.34375 L 185.261719 86.34375 C 186.257812 86.34375 187.25 86.292969 188.238281 86.195312 C 189.226562 86.097656 190.210938 85.953125 191.183594 85.761719 C 192.160156 85.566406 193.125 85.324219 194.074219 85.035156 C 195.027344 84.746094 195.960938 84.414062 196.878906 84.03125 C 197.800781 83.652344 198.695312 83.226562 199.574219 82.757812 C 200.449219 82.289062 201.300781 81.78125 202.128906 81.226562 C 202.957031 80.675781 203.753906 80.082031 204.523438 79.453125 C 205.289062 78.820312 206.027344 78.15625 206.730469 77.453125 C 207.433594 76.75 208.097656 76.011719 208.730469 75.242188 C 209.359375 74.476562 209.953125 73.679688 210.503906 72.851562 C 211.058594 72.023438 211.566406 71.171875 212.035156 70.296875 C 212.503906 69.417969 212.929688 68.519531 213.308594 67.601562 C 213.691406 66.683594 214.023438 65.75 214.3125 64.796875 C 214.601562 63.847656 214.84375 62.882812 215.039062 61.90625 C 215.230469 60.933594 215.378906 59.949219 215.476562 58.960938 C 215.574219 57.972656 215.621094 56.980469 215.621094 55.984375 L 215.621094 34.015625 C 215.621094 33.019531 215.574219 32.027344 215.476562 31.039062 C 215.378906 30.046875 215.230469 29.066406 215.039062 28.089844 C 214.84375 27.117188 214.601562 26.152344 214.3125 25.203125 C 214.023438 24.25 213.691406 23.316406 213.308594 22.394531 C 212.929688 21.476562 212.503906 20.578125 212.035156 19.703125 C 211.566406 18.828125 211.058594 17.972656 210.503906 17.148438 C 209.953125 16.320312 209.359375 15.523438 208.730469 14.753906 C 208.097656 13.984375 207.433594 13.25 206.730469 12.546875 C 206.027344 11.84375 205.289062 11.175781 204.523438 10.546875 C 203.753906 9.914062 202.957031 9.324219 202.128906 8.773438 C 201.300781 8.21875 200.449219 7.710938 199.574219 7.242188 C 198.695312 6.773438 197.800781 6.347656 196.878906 5.964844 C 195.960938 5.585938 195.027344 5.25 194.074219 4.964844 C 193.125 4.675781 192.160156 4.433594 191.183594 4.238281 C 190.210938 4.046875 189.226562 3.898438 188.238281 3.800781 C 187.25 3.703125 186.257812 3.65625 185.261719 3.65625 Z M 173.230469 68.625 C 166.066406 68.242188 153.605469 62.214844 153.605469 47.347656 L 153.605469 25.804688 C 153.605469 25.511719 153.632812 25.226562 153.691406 24.941406 C 153.746094 24.65625 153.832031 24.378906 153.941406 24.109375 C 154.054688 23.839844 154.191406 23.585938 154.351562 23.34375 C 154.511719 23.101562 154.695312 22.878906 154.902344 22.671875 C 155.109375 22.464844 155.332031 22.28125 155.574219 22.121094 C 155.816406 21.960938 156.070312 21.824219 156.339844 21.710938 C 156.609375 21.601562 156.886719 21.515625 157.171875 21.460938 C 157.457031 21.402344 157.746094 21.375 158.035156 21.375 L 160.988281 21.375 C 161.277344 21.375 161.566406 21.402344 161.851562 21.460938 C 162.136719 21.515625 162.414062 21.601562 162.683594 21.710938 C 162.953125 21.824219 163.207031 21.960938 163.449219 22.121094 C 163.691406 22.28125 163.914062 22.464844 164.121094 22.671875 C 164.324219 22.878906 164.511719 23.101562 164.671875 23.34375 C 164.832031 23.585938 164.96875 23.839844 165.082031 24.109375 C 165.191406 24.378906 165.277344 24.65625 165.332031 24.941406 C 165.390625 25.226562 165.417969 25.511719 165.417969 25.804688 L 165.417969 47.640625 C 165.410156 48.183594 165.449219 48.726562 165.539062 49.261719 C 165.628906 49.796875 165.765625 50.320312 165.945312 50.832031 C 166.128906 51.34375 166.355469 51.832031 166.628906 52.304688 C 166.898438 52.773438 167.210938 53.214844 167.5625 53.632812 C 167.910156 54.046875 168.296875 54.425781 168.714844 54.769531 C 169.132812 55.117188 169.582031 55.421875 170.054688 55.6875 C 170.527344 55.953125 171.023438 56.171875 171.535156 56.351562 C 172.050781 56.527344 172.574219 56.65625 173.109375 56.738281 C 173.660156 56.8125 174.210938 56.835938 174.765625 56.804688 C 175.320312 56.777344 175.863281 56.695312 176.402344 56.5625 C 176.941406 56.433594 177.464844 56.253906 177.96875 56.023438 C 178.472656 55.792969 178.953125 55.519531 179.40625 55.199219 C 179.855469 54.878906 180.277344 54.519531 180.664062 54.121094 C 181.046875 53.722656 181.394531 53.292969 181.699219 52.832031 C 182.003906 52.367188 182.261719 51.878906 182.476562 51.367188 C 182.6875 50.855469 182.851562 50.328125 182.96875 49.789062 C 183.082031 49.246094 183.144531 48.695312 183.15625 48.140625 C 183.167969 47.589844 183.128906 47.039062 183.035156 46.492188 C 182.945312 45.945312 182.800781 45.410156 182.609375 44.890625 C 182.417969 44.371094 182.179688 43.871094 181.894531 43.398438 C 181.609375 42.921875 181.28125 42.476562 180.914062 42.0625 C 180.542969 41.648438 180.140625 41.273438 179.699219 40.9375 C 179.261719 40.597656 178.792969 40.304688 178.296875 40.054688 C 177.804688 39.804688 177.289062 39.601562 176.757812 39.449219 C 176.40625 39.351562 176.078125 39.203125 175.773438 39.003906 C 175.46875 38.800781 175.207031 38.554688 174.984375 38.269531 C 174.757812 37.980469 174.585938 37.664062 174.464844 37.320312 C 174.34375 36.976562 174.28125 36.621094 174.277344 36.257812 L 174.277344 30.914062 C 174.277344 30.671875 174.300781 30.433594 174.351562 30.199219 C 174.402344 29.964844 174.476562 29.738281 174.578125 29.519531 C 174.679688 29.300781 174.800781 29.09375 174.949219 28.902344 C 175.09375 28.710938 175.257812 28.535156 175.441406 28.382812 C 175.625 28.226562 175.824219 28.09375 176.039062 27.980469 C 176.25 27.867188 176.472656 27.78125 176.707031 27.71875 C 176.9375 27.652344 177.175781 27.617188 177.414062 27.605469 C 177.65625 27.59375 177.894531 27.609375 178.132812 27.648438 C 178.769531 27.765625 179.40625 27.914062 180.03125 28.089844 C 180.65625 28.265625 181.273438 28.472656 181.878906 28.707031 C 182.488281 28.941406 183.082031 29.203125 183.664062 29.492188 C 184.246094 29.785156 184.8125 30.101562 185.367188 30.445312 C 185.917969 30.789062 186.453125 31.160156 186.96875 31.554688 C 187.488281 31.949219 187.984375 32.367188 188.460938 32.808594 C 188.941406 33.25 189.394531 33.714844 189.832031 34.199219 C 190.265625 34.683594 190.675781 35.1875 191.0625 35.710938 C 191.445312 36.234375 191.808594 36.777344 192.144531 37.332031 C 192.480469 37.890625 192.785156 38.464844 193.070312 39.050781 C 193.351562 39.636719 193.601562 40.234375 193.828125 40.847656 C 194.050781 41.457031 194.246094 42.078125 194.414062 42.707031 C 194.582031 43.335938 194.714844 43.96875 194.824219 44.613281 C 194.929688 45.253906 195.003906 45.898438 195.050781 46.546875 C 195.09375 47.199219 195.109375 47.847656 195.09375 48.5 C 195.078125 49.148438 195.03125 49.796875 194.953125 50.441406 C 194.875 51.089844 194.769531 51.730469 194.632812 52.367188 C 194.492188 53.003906 194.324219 53.628906 194.128906 54.25 C 193.933594 54.871094 193.707031 55.480469 193.449219 56.078125 C 193.195312 56.675781 192.914062 57.261719 192.605469 57.835938 C 192.292969 58.40625 191.957031 58.964844 191.59375 59.503906 C 191.234375 60.042969 190.847656 60.566406 190.433594 61.070312 C 190.023438 61.574219 189.585938 62.058594 189.128906 62.519531 C 188.671875 62.984375 188.195312 63.421875 187.695312 63.839844 C 187.195312 64.257812 186.679688 64.652344 186.144531 65.019531 C 185.605469 65.386719 185.054688 65.730469 184.484375 66.046875 C 183.917969 66.363281 183.335938 66.652344 182.738281 66.914062 C 182.144531 67.175781 181.535156 67.410156 180.917969 67.613281 C 180.300781 67.816406 179.675781 67.992188 179.039062 68.136719 C 178.40625 68.285156 177.765625 68.398438 177.121094 68.484375 C 176.476562 68.566406 175.828125 68.621094 175.179688 68.644531 C 174.527344 68.667969 173.878906 68.664062 173.230469 68.625 Z M 173.230469 68.625 " fill-opacity="1" fill-rule="nonzero"/></g><g fill="#f8f6f2" fill-opacity="1"><g transform="translate(234.982462, 78.749998)"><g><path d="M 24.546875 -10.859375 C 26.554688 -10.859375 28.210938 -11.023438 29.515625 -11.359375 C 30.828125 -11.691406 31.878906 -12.144531 32.671875 -12.71875 C 33.460938 -13.300781 34.007812 -13.988281 34.3125 -14.78125 C 34.613281 -15.570312 34.765625 -16.453125 34.765625 -17.421875 C 34.765625 -19.492188 33.789062 -21.210938 31.84375 -22.578125 C 29.894531 -23.953125 26.550781 -25.429688 21.8125 -27.015625 C 19.738281 -27.742188 17.664062 -28.578125 15.59375 -29.515625 C 13.53125 -30.460938 11.675781 -31.648438 10.03125 -33.078125 C 8.394531 -34.503906 7.054688 -36.238281 6.015625 -38.28125 C 4.984375 -40.320312 4.46875 -42.800781 4.46875 -45.71875 C 4.46875 -48.632812 5.015625 -51.265625 6.109375 -53.609375 C 7.203125 -55.953125 8.753906 -57.941406 10.765625 -59.578125 C 12.773438 -61.222656 15.207031 -62.488281 18.0625 -63.375 C 20.925781 -64.257812 24.148438 -64.703125 27.734375 -64.703125 C 31.992188 -64.703125 35.675781 -64.242188 38.78125 -63.328125 C 41.882812 -62.410156 44.441406 -61.40625 46.453125 -60.3125 L 42.34375 -49.09375 C 40.570312 -50.007812 38.609375 -50.816406 36.453125 -51.515625 C 34.296875 -52.210938 31.695312 -52.5625 28.65625 -52.5625 C 25.25 -52.5625 22.800781 -52.085938 21.3125 -51.140625 C 19.820312 -50.203125 19.078125 -48.757812 19.078125 -46.8125 C 19.078125 -45.65625 19.347656 -44.679688 19.890625 -43.890625 C 20.441406 -43.097656 21.21875 -42.378906 22.21875 -41.734375 C 23.21875 -41.097656 24.375 -40.519531 25.6875 -40 C 27 -39.488281 28.441406 -38.960938 30.015625 -38.421875 C 33.304688 -37.203125 36.164062 -36 38.59375 -34.8125 C 41.03125 -33.625 43.050781 -32.238281 44.65625 -30.65625 C 46.269531 -29.070312 47.472656 -27.21875 48.265625 -25.09375 C 49.054688 -22.96875 49.453125 -20.382812 49.453125 -17.34375 C 49.453125 -11.4375 47.382812 -6.851562 43.25 -3.59375 C 39.113281 -0.34375 32.878906 1.28125 24.546875 1.28125 C 21.742188 1.28125 19.21875 1.113281 16.96875 0.78125 C 14.71875 0.445312 12.722656 0.0351562 10.984375 -0.453125 C 9.253906 -0.941406 7.765625 -1.457031 6.515625 -2 C 5.273438 -2.550781 4.226562 -3.070312 3.375 -3.5625 L 7.390625 -14.875 C 9.273438 -13.84375 11.601562 -12.914062 14.375 -12.09375 C 17.144531 -11.269531 20.535156 -10.859375 24.546875 -10.859375 Z M 24.546875 -10.859375 "/></g></g></g><g fill="#f8f6f2" fill-opacity="1"><g transform="translate(288.08538, 78.749998)"><g><path d="M 19.984375 0 L 6.390625 0 L 6.390625 -48 L 19.984375 -48 Z M 21.265625 -61.875 C 21.265625 -59.375 20.457031 -57.410156 18.84375 -55.984375 C 17.226562 -54.554688 15.328125 -53.84375 13.140625 -53.84375 C 10.953125 -53.84375 9.050781 -54.554688 7.4375 -55.984375 C 5.820312 -57.410156 5.015625 -59.375 5.015625 -61.875 C 5.015625 -64.363281 5.820312 -66.320312 7.4375 -67.75 C 9.050781 -69.175781 10.953125 -69.890625 13.140625 -69.890625 C 15.328125 -69.890625 17.226562 -69.175781 18.84375 -67.75 C 20.457031 -66.320312 21.265625 -64.363281 21.265625 -61.875 Z M 21.265625 -61.875 "/></g></g></g><g fill="#f8f6f2" fill-opacity="1"><g transform="translate(314.454351, 78.749998)"><g><path d="M 28.375 0.828125 C 24.90625 0.828125 21.453125 0.71875 18.015625 0.5 C 14.578125 0.289062 11.003906 -0.207031 7.296875 -1 L 7.296875 -62.328125 C 10.222656 -62.867188 13.414062 -63.273438 16.875 -63.546875 C 20.34375 -63.828125 23.566406 -63.96875 26.546875 -63.96875 C 30.566406 -63.96875 34.265625 -63.675781 37.640625 -63.09375 C 41.015625 -62.519531 43.914062 -61.53125 46.34375 -60.125 C 48.78125 -58.726562 50.679688 -56.890625 52.046875 -54.609375 C 53.421875 -52.328125 54.109375 -49.515625 54.109375 -46.171875 C 54.109375 -41.117188 51.675781 -37.132812 46.8125 -34.21875 C 50.820312 -32.695312 53.554688 -30.628906 55.015625 -28.015625 C 56.484375 -25.398438 57.21875 -22.445312 57.21875 -19.15625 C 57.21875 -12.53125 54.796875 -7.539062 49.953125 -4.1875 C 45.117188 -0.84375 37.925781 0.828125 28.375 0.828125 Z M 21.171875 -27.5625 L 21.171875 -11.21875 C 22.203125 -11.101562 23.328125 -11.015625 24.546875 -10.953125 C 25.765625 -10.890625 27.101562 -10.859375 28.5625 -10.859375 C 32.820312 -10.859375 36.257812 -11.46875 38.875 -12.6875 C 41.488281 -13.90625 42.796875 -16.15625 42.796875 -19.4375 C 42.796875 -22.351562 41.695312 -24.4375 39.5 -25.6875 C 37.3125 -26.9375 34.179688 -27.5625 30.109375 -27.5625 Z M 21.171875 -38.421875 L 28.109375 -38.421875 C 32.484375 -38.421875 35.613281 -38.984375 37.5 -40.109375 C 39.382812 -41.234375 40.328125 -43.039062 40.328125 -45.53125 C 40.328125 -48.082031 39.351562 -49.875 37.40625 -50.90625 C 35.46875 -51.945312 32.609375 -52.46875 28.828125 -52.46875 C 27.617188 -52.46875 26.3125 -52.453125 24.90625 -52.421875 C 23.507812 -52.390625 22.265625 -52.3125 21.171875 -52.1875 Z M 21.171875 -38.421875 "/></g></g></g><g fill="#f8f6f2" fill-opacity="1"><g transform="translate(375.769068, 78.749998)"><g><path d="M 19.984375 0 L 6.390625 0 L 6.390625 -48 L 19.984375 -48 Z M 21.265625 -61.875 C 21.265625 -59.375 20.457031 -57.410156 18.84375 -55.984375 C 17.226562 -54.554688 15.328125 -53.84375 13.140625 -53.84375 C 10.953125 -53.84375 9.050781 -54.554688 7.4375 -55.984375 C 5.820312 -57.410156 5.015625 -59.375 5.015625 -61.875 C 5.015625 -64.363281 5.820312 -66.320312 7.4375 -67.75 C 9.050781 -69.175781 10.953125 -69.890625 13.140625 -69.890625 C 15.328125 -69.890625 17.226562 -69.175781 18.84375 -67.75 C 20.457031 -66.320312 21.265625 -64.363281 21.265625 -61.875 Z M 21.265625 -61.875 "/></g></g></g><g fill="#f8f6f2" fill-opacity="1"><g transform="translate(402.138039, 78.749998)"><g><path d="M 32.765625 -25.453125 C 32.765625 -29.835938 32.195312 -32.941406 31.0625 -34.765625 C 29.9375 -36.585938 28.007812 -37.5 25.28125 -37.5 C 24.425781 -37.5 23.539062 -37.453125 22.625 -37.359375 C 21.71875 -37.273438 20.835938 -37.171875 19.984375 -37.046875 L 19.984375 0 L 6.390625 0 L 6.390625 -46.359375 C 7.546875 -46.660156 8.898438 -46.976562 10.453125 -47.3125 C 12.003906 -47.644531 13.644531 -47.945312 15.375 -48.21875 C 17.101562 -48.5 18.878906 -48.710938 20.703125 -48.859375 C 22.535156 -49.015625 24.332031 -49.09375 26.09375 -49.09375 C 29.5625 -49.09375 32.375 -48.648438 34.53125 -47.765625 C 36.695312 -46.890625 38.476562 -45.84375 39.875 -44.625 C 41.820312 -46.019531 44.054688 -47.113281 46.578125 -47.90625 C 49.109375 -48.695312 51.4375 -49.09375 53.5625 -49.09375 C 57.394531 -49.09375 60.539062 -48.5625 63 -47.5 C 65.46875 -46.4375 67.429688 -44.929688 68.890625 -42.984375 C 70.347656 -41.035156 71.347656 -38.722656 71.890625 -36.046875 C 72.441406 -33.367188 72.71875 -30.382812 72.71875 -27.09375 L 72.71875 0 L 59.125 0 L 59.125 -25.453125 C 59.125 -29.835938 58.5625 -32.941406 57.4375 -34.765625 C 56.3125 -36.585938 54.378906 -37.5 51.640625 -37.5 C 50.910156 -37.5 49.890625 -37.316406 48.578125 -36.953125 C 47.273438 -36.585938 46.195312 -36.132812 45.34375 -35.59375 C 45.769531 -34.1875 46.046875 -32.707031 46.171875 -31.15625 C 46.296875 -29.601562 46.359375 -27.945312 46.359375 -26.1875 L 46.359375 0 L 32.765625 0 Z M 32.765625 -25.453125 "/></g></g></g><g fill="#f8f6f2" fill-opacity="1"><g transform="translate(480.788768, 78.749998)"><g><path d="M 24.734375 -9.484375 C 26.066406 -9.484375 27.34375 -9.515625 28.5625 -9.578125 C 29.78125 -9.640625 30.753906 -9.734375 31.484375 -9.859375 L 31.484375 -20.171875 C 30.929688 -20.285156 30.109375 -20.40625 29.015625 -20.53125 C 27.921875 -20.65625 26.914062 -20.71875 26 -20.71875 C 24.726562 -20.71875 23.53125 -20.640625 22.40625 -20.484375 C 21.28125 -20.328125 20.289062 -20.035156 19.4375 -19.609375 C 18.582031 -19.191406 17.910156 -18.617188 17.421875 -17.890625 C 16.941406 -17.160156 16.703125 -16.242188 16.703125 -15.140625 C 16.703125 -13.015625 17.414062 -11.539062 18.84375 -10.71875 C 20.269531 -9.894531 22.234375 -9.484375 24.734375 -9.484375 Z M 23.640625 -49.28125 C 27.648438 -49.28125 30.992188 -48.820312 33.671875 -47.90625 C 36.347656 -46.988281 38.488281 -45.675781 40.09375 -43.96875 C 41.707031 -42.269531 42.847656 -40.203125 43.515625 -37.765625 C 44.191406 -35.335938 44.53125 -32.632812 44.53125 -29.65625 L 44.53125 -1.375 C 42.582031 -0.945312 39.875 -0.445312 36.40625 0.125 C 32.9375 0.707031 28.738281 1 23.8125 1 C 20.707031 1 17.894531 0.722656 15.375 0.171875 C 12.851562 -0.367188 10.675781 -1.257812 8.84375 -2.5 C 7.019531 -3.75 5.617188 -5.378906 4.640625 -7.390625 C 3.671875 -9.398438 3.1875 -11.863281 3.1875 -14.78125 C 3.1875 -17.582031 3.75 -19.953125 4.875 -21.890625 C 6 -23.835938 7.503906 -25.390625 9.390625 -26.546875 C 11.285156 -27.703125 13.445312 -28.539062 15.875 -29.0625 C 18.3125 -29.582031 20.835938 -29.84375 23.453125 -29.84375 C 25.210938 -29.84375 26.773438 -29.765625 28.140625 -29.609375 C 29.515625 -29.453125 30.628906 -29.253906 31.484375 -29.015625 L 31.484375 -30.296875 C 31.484375 -32.609375 30.78125 -34.460938 29.375 -35.859375 C 27.976562 -37.253906 25.546875 -37.953125 22.078125 -37.953125 C 19.765625 -37.953125 17.484375 -37.785156 15.234375 -37.453125 C 12.984375 -37.117188 11.039062 -36.648438 9.40625 -36.046875 L 7.671875 -47 C 8.453125 -47.238281 9.4375 -47.492188 10.625 -47.765625 C 11.8125 -48.046875 13.101562 -48.289062 14.5 -48.5 C 15.90625 -48.707031 17.382812 -48.890625 18.9375 -49.046875 C 20.488281 -49.203125 22.054688 -49.28125 23.640625 -49.28125 Z M 23.640625 -49.28125 "/></g></g></g></svg>