<svg xmlns="http://www.w3.org/2000/svg" xmlns:xlink="http://www.w3.org/1999/xlink" width="130" zoomAndPan="magnify" viewBox="0 0 97.5 30.000001" height="40" preserveAspectRatio="xMidYMid meet" version="1.0"><defs><g/><clipPath id="4c00de2e71"><path d="M 9.15625 6.636719 L 25.851562 6.636719 L 25.851562 23.332031 L 9.15625 23.332031 Z M 9.15625 6.636719 " clip-rule="nonzero"/></clipPath></defs><g clip-path="url(#4c00de2e71)"><path fill="#865be2" d="M 19.808594 6.636719 L 15.335938 6.636719 C 14.929688 6.636719 14.527344 6.675781 14.128906 6.753906 C 13.734375 6.835938 13.347656 6.953125 12.972656 7.105469 C 12.597656 7.261719 12.242188 7.453125 11.902344 7.679688 C 11.566406 7.902344 11.253906 8.160156 10.96875 8.445312 C 10.679688 8.734375 10.425781 9.046875 10.199219 9.382812 C 9.972656 9.71875 9.78125 10.078125 9.628906 10.453125 C 9.472656 10.824219 9.355469 11.210938 9.277344 11.609375 C 9.195312 12.007812 9.15625 12.410156 9.15625 12.816406 L 9.15625 17.289062 C 9.15625 17.695312 9.195312 18.09375 9.277344 18.492188 C 9.355469 18.890625 9.472656 19.277344 9.628906 19.652344 C 9.78125 20.027344 9.972656 20.382812 10.199219 20.71875 C 10.425781 21.058594 10.679688 21.371094 10.96875 21.65625 C 11.253906 21.945312 11.566406 22.199219 11.902344 22.425781 C 12.242188 22.652344 12.597656 22.839844 12.972656 22.996094 C 13.347656 23.152344 13.734375 23.269531 14.128906 23.347656 C 14.527344 23.425781 14.929688 23.464844 15.335938 23.464844 L 19.808594 23.464844 C 20.214844 23.464844 20.617188 23.425781 21.011719 23.347656 C 21.410156 23.269531 21.796875 23.152344 22.171875 22.996094 C 22.546875 22.839844 22.902344 22.652344 23.242188 22.425781 C 23.578125 22.199219 23.890625 21.945312 24.175781 21.65625 C 24.464844 21.371094 24.71875 21.058594 24.945312 20.71875 C 25.171875 20.382812 25.363281 20.027344 25.515625 19.652344 C 25.671875 19.277344 25.789062 18.890625 25.867188 18.492188 C 25.949219 18.09375 25.988281 17.695312 25.988281 17.289062 L 25.988281 12.816406 C 25.988281 12.410156 25.949219 12.007812 25.867188 11.609375 C 25.789062 11.210938 25.671875 10.824219 25.515625 10.453125 C 25.363281 10.078125 25.171875 9.71875 24.945312 9.382812 C 24.71875 9.046875 24.464844 8.734375 24.175781 8.445312 C 23.890625 8.160156 23.578125 7.902344 23.242188 7.679688 C 22.902344 7.453125 22.546875 7.261719 22.171875 7.105469 C 21.796875 6.953125 21.410156 6.835938 21.011719 6.753906 C 20.617188 6.675781 20.214844 6.636719 19.808594 6.636719 Z M 17.359375 19.859375 C 15.902344 19.78125 13.363281 18.554688 13.363281 15.53125 L 13.363281 11.144531 C 13.363281 10.894531 13.453125 10.683594 13.628906 10.507812 C 13.804688 10.332031 14.015625 10.242188 14.265625 10.242188 L 14.867188 10.242188 C 15.117188 10.242188 15.328125 10.332031 15.503906 10.507812 C 15.679688 10.683594 15.769531 10.894531 15.769531 11.144531 L 15.769531 15.589844 C 15.765625 15.8125 15.800781 16.027344 15.875 16.238281 C 15.953125 16.449219 16.0625 16.636719 16.207031 16.808594 C 16.347656 16.980469 16.519531 17.117188 16.710938 17.226562 C 16.90625 17.335938 17.113281 17.40625 17.335938 17.441406 C 17.558594 17.472656 17.785156 17.460938 18.003906 17.40625 C 18.226562 17.351562 18.429688 17.257812 18.617188 17.128906 C 18.800781 16.996094 18.957031 16.835938 19.082031 16.644531 C 19.207031 16.457031 19.292969 16.25 19.339844 16.027344 C 19.386719 15.804688 19.390625 15.578125 19.355469 15.355469 C 19.316406 15.128906 19.238281 14.921875 19.121094 14.726562 C 19.003906 14.53125 18.855469 14.363281 18.675781 14.226562 C 18.496094 14.085938 18.296875 13.984375 18.078125 13.921875 C 17.929688 13.882812 17.808594 13.800781 17.714844 13.683594 C 17.621094 13.5625 17.574219 13.425781 17.570312 13.273438 L 17.570312 12.183594 C 17.570312 12.085938 17.59375 11.992188 17.632812 11.902344 C 17.675781 11.8125 17.734375 11.734375 17.808594 11.667969 C 17.886719 11.605469 17.96875 11.558594 18.066406 11.535156 C 18.160156 11.507812 18.257812 11.503906 18.355469 11.519531 C 18.882812 11.617188 19.375 11.804688 19.828125 12.089844 C 20.285156 12.375 20.671875 12.730469 20.988281 13.160156 C 21.304688 13.59375 21.535156 14.066406 21.671875 14.585938 C 21.808594 15.101562 21.84375 15.628906 21.78125 16.160156 C 21.71875 16.691406 21.558594 17.191406 21.300781 17.664062 C 21.046875 18.136719 20.714844 18.542969 20.304688 18.886719 C 19.890625 19.230469 19.433594 19.484375 18.925781 19.65625 C 18.414062 19.824219 17.894531 19.890625 17.359375 19.859375 Z M 17.359375 19.859375 " fill-opacity="1" fill-rule="nonzero"/></g><g fill="#f7faff" fill-opacity="1"><g transform="translate(27.03797, 18.317685)"><g><path d="M 3.5625 -1.578125 C 3.84375 -1.578125 4.078125 -1.597656 4.265625 -1.640625 C 4.460938 -1.691406 4.617188 -1.757812 4.734375 -1.84375 C 4.847656 -1.925781 4.925781 -2.023438 4.96875 -2.140625 C 5.007812 -2.253906 5.03125 -2.382812 5.03125 -2.53125 C 5.03125 -2.820312 4.890625 -3.066406 4.609375 -3.265625 C 4.328125 -3.460938 3.84375 -3.675781 3.15625 -3.90625 C 2.851562 -4.019531 2.550781 -4.144531 2.25 -4.28125 C 1.957031 -4.414062 1.691406 -4.585938 1.453125 -4.796875 C 1.210938 -5.003906 1.015625 -5.253906 0.859375 -5.546875 C 0.710938 -5.835938 0.640625 -6.195312 0.640625 -6.625 C 0.640625 -7.039062 0.71875 -7.421875 0.875 -7.765625 C 1.039062 -8.109375 1.269531 -8.394531 1.5625 -8.625 C 1.851562 -8.863281 2.203125 -9.046875 2.609375 -9.171875 C 3.023438 -9.304688 3.492188 -9.375 4.015625 -9.375 C 4.628906 -9.375 5.160156 -9.304688 5.609375 -9.171875 C 6.066406 -9.035156 6.441406 -8.890625 6.734375 -8.734375 L 6.140625 -7.109375 C 5.878906 -7.242188 5.59375 -7.359375 5.28125 -7.453125 C 4.96875 -7.554688 4.59375 -7.609375 4.15625 -7.609375 C 3.65625 -7.609375 3.296875 -7.539062 3.078125 -7.40625 C 2.867188 -7.269531 2.765625 -7.0625 2.765625 -6.78125 C 2.765625 -6.613281 2.800781 -6.472656 2.875 -6.359375 C 2.957031 -6.242188 3.070312 -6.140625 3.21875 -6.046875 C 3.363281 -5.953125 3.53125 -5.867188 3.71875 -5.796875 C 3.90625 -5.722656 4.113281 -5.644531 4.34375 -5.5625 C 4.820312 -5.382812 5.238281 -5.207031 5.59375 -5.03125 C 5.945312 -4.863281 6.238281 -4.664062 6.46875 -4.4375 C 6.707031 -4.207031 6.882812 -3.9375 7 -3.625 C 7.113281 -3.320312 7.171875 -2.953125 7.171875 -2.515625 C 7.171875 -1.660156 6.867188 -0.992188 6.265625 -0.515625 C 5.660156 -0.046875 4.757812 0.1875 3.5625 0.1875 C 3.15625 0.1875 2.785156 0.160156 2.453125 0.109375 C 2.128906 0.0664062 1.84375 0.0078125 1.59375 -0.0625 C 1.34375 -0.132812 1.125 -0.207031 0.9375 -0.28125 C 0.757812 -0.363281 0.609375 -0.441406 0.484375 -0.515625 L 1.078125 -2.15625 C 1.347656 -2.007812 1.679688 -1.875 2.078125 -1.75 C 2.484375 -1.632812 2.976562 -1.578125 3.5625 -1.578125 Z M 3.5625 -1.578125 "/></g></g></g><g fill="#f7faff" fill-opacity="1"><g transform="translate(34.734406, 18.317685)"><g><path d="M 2.890625 0 L 0.921875 0 L 0.921875 -6.953125 L 2.890625 -6.953125 Z M 3.078125 -8.96875 C 3.078125 -8.601562 2.957031 -8.316406 2.71875 -8.109375 C 2.488281 -7.898438 2.21875 -7.796875 1.90625 -7.796875 C 1.582031 -7.796875 1.304688 -7.898438 1.078125 -8.109375 C 0.847656 -8.316406 0.734375 -8.601562 0.734375 -8.96875 C 0.734375 -9.320312 0.847656 -9.601562 1.078125 -9.8125 C 1.304688 -10.019531 1.582031 -10.125 1.90625 -10.125 C 2.21875 -10.125 2.488281 -10.019531 2.71875 -9.8125 C 2.957031 -9.601562 3.078125 -9.320312 3.078125 -8.96875 Z M 3.078125 -8.96875 "/></g></g></g><g fill="#f7faff" fill-opacity="1"><g transform="translate(38.556177, 18.317685)"><g><path d="M 4.109375 0.125 C 3.609375 0.125 3.109375 0.109375 2.609375 0.078125 C 2.109375 0.046875 1.59375 -0.0234375 1.0625 -0.140625 L 1.0625 -9.03125 C 1.476562 -9.101562 1.9375 -9.160156 2.4375 -9.203125 C 2.945312 -9.242188 3.414062 -9.265625 3.84375 -9.265625 C 4.425781 -9.265625 4.960938 -9.222656 5.453125 -9.140625 C 5.941406 -9.054688 6.363281 -8.910156 6.71875 -8.703125 C 7.070312 -8.503906 7.347656 -8.238281 7.546875 -7.90625 C 7.742188 -7.582031 7.84375 -7.175781 7.84375 -6.6875 C 7.84375 -5.957031 7.488281 -5.378906 6.78125 -4.953125 C 7.363281 -4.734375 7.757812 -4.429688 7.96875 -4.046875 C 8.175781 -3.671875 8.28125 -3.25 8.28125 -2.78125 C 8.28125 -1.8125 7.929688 -1.082031 7.234375 -0.59375 C 6.535156 -0.113281 5.492188 0.125 4.109375 0.125 Z M 3.0625 -3.984375 L 3.0625 -1.625 C 3.21875 -1.601562 3.378906 -1.585938 3.546875 -1.578125 C 3.722656 -1.578125 3.921875 -1.578125 4.140625 -1.578125 C 4.753906 -1.578125 5.25 -1.664062 5.625 -1.84375 C 6.007812 -2.019531 6.203125 -2.34375 6.203125 -2.8125 C 6.203125 -3.238281 6.039062 -3.539062 5.71875 -3.71875 C 5.40625 -3.894531 4.953125 -3.984375 4.359375 -3.984375 Z M 3.0625 -5.5625 L 4.078125 -5.5625 C 4.703125 -5.5625 5.148438 -5.640625 5.421875 -5.796875 C 5.703125 -5.960938 5.84375 -6.226562 5.84375 -6.59375 C 5.84375 -6.96875 5.703125 -7.226562 5.421875 -7.375 C 5.140625 -7.519531 4.722656 -7.59375 4.171875 -7.59375 C 3.992188 -7.59375 3.800781 -7.59375 3.59375 -7.59375 C 3.394531 -7.59375 3.21875 -7.582031 3.0625 -7.5625 Z M 3.0625 -5.5625 "/></g></g></g><g fill="#f7faff" fill-opacity="1"><g transform="translate(47.442786, 18.317685)"><g><path d="M 2.890625 0 L 0.921875 0 L 0.921875 -6.953125 L 2.890625 -6.953125 Z M 3.078125 -8.96875 C 3.078125 -8.601562 2.957031 -8.316406 2.71875 -8.109375 C 2.488281 -7.898438 2.21875 -7.796875 1.90625 -7.796875 C 1.582031 -7.796875 1.304688 -7.898438 1.078125 -8.109375 C 0.847656 -8.316406 0.734375 -8.601562 0.734375 -8.96875 C 0.734375 -9.320312 0.847656 -9.601562 1.078125 -9.8125 C 1.304688 -10.019531 1.582031 -10.125 1.90625 -10.125 C 2.21875 -10.125 2.488281 -10.019531 2.71875 -9.8125 C 2.957031 -9.601562 3.078125 -9.320312 3.078125 -8.96875 Z M 3.078125 -8.96875 "/></g></g></g><g fill="#f7faff" fill-opacity="1"><g transform="translate(51.264557, 18.317685)"><g><path d="M 4.75 -3.6875 C 4.75 -4.320312 4.664062 -4.769531 4.5 -5.03125 C 4.332031 -5.300781 4.050781 -5.4375 3.65625 -5.4375 C 3.53125 -5.4375 3.398438 -5.425781 3.265625 -5.40625 C 3.140625 -5.394531 3.015625 -5.378906 2.890625 -5.359375 L 2.890625 0 L 0.921875 0 L 0.921875 -6.71875 C 1.085938 -6.757812 1.28125 -6.800781 1.5 -6.84375 C 1.726562 -6.894531 1.96875 -6.941406 2.21875 -6.984375 C 2.476562 -7.023438 2.738281 -7.054688 3 -7.078125 C 3.257812 -7.097656 3.519531 -7.109375 3.78125 -7.109375 C 4.28125 -7.109375 4.6875 -7.046875 5 -6.921875 C 5.3125 -6.796875 5.570312 -6.644531 5.78125 -6.46875 C 6.0625 -6.664062 6.382812 -6.820312 6.75 -6.9375 C 7.113281 -7.050781 7.453125 -7.109375 7.765625 -7.109375 C 8.316406 -7.109375 8.769531 -7.03125 9.125 -6.875 C 9.476562 -6.726562 9.757812 -6.507812 9.96875 -6.21875 C 10.1875 -5.9375 10.332031 -5.601562 10.40625 -5.21875 C 10.488281 -4.832031 10.53125 -4.398438 10.53125 -3.921875 L 10.53125 0 L 8.5625 0 L 8.5625 -3.6875 C 8.5625 -4.320312 8.476562 -4.769531 8.3125 -5.03125 C 8.15625 -5.300781 7.878906 -5.4375 7.484375 -5.4375 C 7.378906 -5.4375 7.226562 -5.410156 7.03125 -5.359375 C 6.84375 -5.304688 6.6875 -5.238281 6.5625 -5.15625 C 6.625 -4.945312 6.664062 -4.726562 6.6875 -4.5 C 6.707031 -4.28125 6.71875 -4.046875 6.71875 -3.796875 L 6.71875 0 L 4.75 0 Z M 4.75 -3.6875 "/></g></g></g><g fill="#f7faff" fill-opacity="1"><g transform="translate(62.663749, 18.317685)"><g><path d="M 3.578125 -1.375 C 3.773438 -1.375 3.960938 -1.378906 4.140625 -1.390625 C 4.316406 -1.398438 4.457031 -1.410156 4.5625 -1.421875 L 4.5625 -2.921875 C 4.476562 -2.941406 4.359375 -2.957031 4.203125 -2.96875 C 4.046875 -2.988281 3.898438 -3 3.765625 -3 C 3.578125 -3 3.398438 -2.988281 3.234375 -2.96875 C 3.078125 -2.945312 2.9375 -2.90625 2.8125 -2.84375 C 2.6875 -2.78125 2.585938 -2.695312 2.515625 -2.59375 C 2.453125 -2.488281 2.421875 -2.351562 2.421875 -2.1875 C 2.421875 -1.882812 2.523438 -1.671875 2.734375 -1.546875 C 2.941406 -1.429688 3.222656 -1.375 3.578125 -1.375 Z M 3.421875 -7.140625 C 4.003906 -7.140625 4.488281 -7.070312 4.875 -6.9375 C 5.257812 -6.800781 5.566406 -6.609375 5.796875 -6.359375 C 6.035156 -6.117188 6.203125 -5.820312 6.296875 -5.46875 C 6.398438 -5.113281 6.453125 -4.722656 6.453125 -4.296875 L 6.453125 -0.203125 C 6.171875 -0.140625 5.773438 -0.0664062 5.265625 0.015625 C 4.765625 0.0976562 4.160156 0.140625 3.453125 0.140625 C 3.003906 0.140625 2.59375 0.0976562 2.21875 0.015625 C 1.851562 -0.0546875 1.539062 -0.179688 1.28125 -0.359375 C 1.019531 -0.546875 0.816406 -0.78125 0.671875 -1.0625 C 0.535156 -1.351562 0.46875 -1.710938 0.46875 -2.140625 C 0.46875 -2.546875 0.546875 -2.890625 0.703125 -3.171875 C 0.867188 -3.453125 1.085938 -3.675781 1.359375 -3.84375 C 1.628906 -4.007812 1.941406 -4.128906 2.296875 -4.203125 C 2.648438 -4.285156 3.015625 -4.328125 3.390625 -4.328125 C 3.648438 -4.328125 3.878906 -4.3125 4.078125 -4.28125 C 4.273438 -4.257812 4.4375 -4.234375 4.5625 -4.203125 L 4.5625 -4.390625 C 4.5625 -4.722656 4.457031 -4.988281 4.25 -5.1875 C 4.050781 -5.394531 3.703125 -5.5 3.203125 -5.5 C 2.867188 -5.5 2.535156 -5.472656 2.203125 -5.421875 C 1.878906 -5.378906 1.597656 -5.3125 1.359375 -5.21875 L 1.109375 -6.8125 C 1.222656 -6.84375 1.363281 -6.878906 1.53125 -6.921875 C 1.707031 -6.960938 1.894531 -7 2.09375 -7.03125 C 2.300781 -7.0625 2.515625 -7.085938 2.734375 -7.109375 C 2.960938 -7.128906 3.191406 -7.140625 3.421875 -7.140625 Z M 3.421875 -7.140625 "/></g></g></g><g fill="#f7faff" fill-opacity="1"><g transform="translate(27.631011, 22.294171)"><g><path d="M 1.109375 0.03125 C 0.941406 0.03125 0.789062 0 0.65625 -0.0625 C 0.519531 -0.125 0.410156 -0.207031 0.328125 -0.3125 C 0.253906 -0.425781 0.21875 -0.550781 0.21875 -0.6875 L 0.578125 -0.6875 C 0.585938 -0.570312 0.632812 -0.472656 0.71875 -0.390625 C 0.8125 -0.304688 0.941406 -0.265625 1.109375 -0.265625 C 1.273438 -0.265625 1.40625 -0.300781 1.5 -0.375 C 1.59375 -0.457031 1.640625 -0.5625 1.640625 -0.6875 C 1.640625 -0.789062 1.609375 -0.875 1.546875 -0.9375 C 1.492188 -1 1.425781 -1.046875 1.34375 -1.078125 C 1.257812 -1.109375 1.148438 -1.144531 1.015625 -1.1875 C 0.847656 -1.226562 0.710938 -1.269531 0.609375 -1.3125 C 0.503906 -1.363281 0.414062 -1.4375 0.34375 -1.53125 C 0.269531 -1.625 0.234375 -1.753906 0.234375 -1.921875 C 0.234375 -2.054688 0.265625 -2.175781 0.328125 -2.28125 C 0.398438 -2.394531 0.503906 -2.484375 0.640625 -2.546875 C 0.773438 -2.609375 0.925781 -2.640625 1.09375 -2.640625 C 1.332031 -2.640625 1.53125 -2.578125 1.6875 -2.453125 C 1.84375 -2.328125 1.929688 -2.164062 1.953125 -1.96875 L 1.578125 -1.96875 C 1.566406 -2.070312 1.515625 -2.160156 1.421875 -2.234375 C 1.328125 -2.304688 1.207031 -2.34375 1.0625 -2.34375 C 0.914062 -2.34375 0.796875 -2.304688 0.703125 -2.234375 C 0.617188 -2.160156 0.578125 -2.054688 0.578125 -1.921875 C 0.578125 -1.828125 0.601562 -1.75 0.65625 -1.6875 C 0.707031 -1.632812 0.769531 -1.59375 0.84375 -1.5625 C 0.925781 -1.53125 1.039062 -1.492188 1.1875 -1.453125 C 1.351562 -1.398438 1.488281 -1.351562 1.59375 -1.3125 C 1.695312 -1.269531 1.785156 -1.195312 1.859375 -1.09375 C 1.941406 -1 1.984375 -0.867188 1.984375 -0.703125 C 1.984375 -0.578125 1.945312 -0.457031 1.875 -0.34375 C 1.8125 -0.238281 1.710938 -0.148438 1.578125 -0.078125 C 1.441406 -0.00390625 1.285156 0.03125 1.109375 0.03125 Z M 1.109375 0.03125 "/></g></g></g><g fill="#f7faff" fill-opacity="1"><g transform="translate(29.825154, 22.294171)"><g><path d="M 0.46875 -2.375 C 0.394531 -2.375 0.335938 -2.394531 0.296875 -2.4375 C 0.253906 -2.488281 0.234375 -2.546875 0.234375 -2.609375 C 0.234375 -2.671875 0.253906 -2.722656 0.296875 -2.765625 C 0.335938 -2.816406 0.394531 -2.84375 0.46875 -2.84375 C 0.53125 -2.84375 0.582031 -2.816406 0.625 -2.765625 C 0.664062 -2.722656 0.6875 -2.671875 0.6875 -2.609375 C 0.6875 -2.546875 0.664062 -2.488281 0.625 -2.4375 C 0.582031 -2.394531 0.53125 -2.375 0.46875 -2.375 Z M 0.625 -2.046875 L 0.625 0 L 0.28125 0 L 0.28125 -2.046875 Z M 0.625 -2.046875 "/></g></g></g><g fill="#f7faff" fill-opacity="1"><g transform="translate(30.744678, 22.294171)"><g><path d="M 1.015625 0.03125 C 0.859375 0.03125 0.71875 0.00390625 0.59375 -0.046875 C 0.46875 -0.0976562 0.367188 -0.171875 0.296875 -0.265625 C 0.222656 -0.367188 0.179688 -0.476562 0.171875 -0.59375 L 0.53125 -0.59375 C 0.539062 -0.5 0.585938 -0.414062 0.671875 -0.34375 C 0.753906 -0.28125 0.867188 -0.25 1.015625 -0.25 C 1.140625 -0.25 1.238281 -0.273438 1.3125 -0.328125 C 1.382812 -0.390625 1.421875 -0.46875 1.421875 -0.5625 C 1.421875 -0.644531 1.378906 -0.707031 1.296875 -0.75 C 1.222656 -0.800781 1.101562 -0.847656 0.9375 -0.890625 C 0.78125 -0.921875 0.65625 -0.957031 0.5625 -1 C 0.46875 -1.039062 0.382812 -1.101562 0.3125 -1.1875 C 0.25 -1.269531 0.21875 -1.378906 0.21875 -1.515625 C 0.21875 -1.617188 0.25 -1.710938 0.3125 -1.796875 C 0.375 -1.878906 0.460938 -1.945312 0.578125 -2 C 0.691406 -2.050781 0.820312 -2.078125 0.96875 -2.078125 C 1.195312 -2.078125 1.378906 -2.019531 1.515625 -1.90625 C 1.648438 -1.789062 1.722656 -1.632812 1.734375 -1.4375 L 1.40625 -1.4375 C 1.394531 -1.539062 1.347656 -1.625 1.265625 -1.6875 C 1.191406 -1.757812 1.085938 -1.796875 0.953125 -1.796875 C 0.828125 -1.796875 0.726562 -1.769531 0.65625 -1.71875 C 0.59375 -1.664062 0.5625 -1.597656 0.5625 -1.515625 C 0.5625 -1.441406 0.582031 -1.382812 0.625 -1.34375 C 0.664062 -1.300781 0.71875 -1.265625 0.78125 -1.234375 C 0.851562 -1.210938 0.945312 -1.1875 1.0625 -1.15625 C 1.207031 -1.113281 1.328125 -1.070312 1.421875 -1.03125 C 1.515625 -0.988281 1.59375 -0.929688 1.65625 -0.859375 C 1.71875 -0.785156 1.753906 -0.6875 1.765625 -0.5625 C 1.765625 -0.445312 1.734375 -0.34375 1.671875 -0.25 C 1.609375 -0.164062 1.519531 -0.0976562 1.40625 -0.046875 C 1.289062 0.00390625 1.160156 0.03125 1.015625 0.03125 Z M 1.015625 0.03125 "/></g></g></g><g fill="#f7faff" fill-opacity="1"><g transform="translate(32.695855, 22.294171)"><g><path d="M 0.703125 -1.765625 L 0.703125 -0.5625 C 0.703125 -0.457031 0.722656 -0.382812 0.765625 -0.34375 C 0.804688 -0.300781 0.878906 -0.28125 0.984375 -0.28125 L 1.234375 -0.28125 L 1.234375 0 L 0.9375 0 C 0.738281 0 0.59375 -0.0390625 0.5 -0.125 C 0.40625 -0.21875 0.359375 -0.363281 0.359375 -0.5625 L 0.359375 -1.765625 L 0.09375 -1.765625 L 0.09375 -2.046875 L 0.359375 -2.046875 L 0.359375 -2.5625 L 0.703125 -2.5625 L 0.703125 -2.046875 L 1.234375 -2.046875 L 1.234375 -1.765625 Z M 0.703125 -1.765625 "/></g></g></g><g fill="#f7faff" fill-opacity="1"><g transform="translate(34.056447, 22.294171)"><g><path d="M 2.15625 -1.109375 C 2.15625 -1.035156 2.148438 -0.960938 2.140625 -0.890625 L 0.515625 -0.890625 C 0.523438 -0.691406 0.59375 -0.535156 0.71875 -0.421875 C 0.84375 -0.304688 0.992188 -0.25 1.171875 -0.25 C 1.316406 -0.25 1.4375 -0.28125 1.53125 -0.34375 C 1.632812 -0.414062 1.707031 -0.507812 1.75 -0.625 L 2.109375 -0.625 C 2.054688 -0.4375 1.945312 -0.28125 1.78125 -0.15625 C 1.613281 -0.03125 1.410156 0.03125 1.171875 0.03125 C 0.972656 0.03125 0.796875 -0.0078125 0.640625 -0.09375 C 0.492188 -0.1875 0.375 -0.3125 0.28125 -0.46875 C 0.195312 -0.625 0.15625 -0.8125 0.15625 -1.03125 C 0.15625 -1.238281 0.195312 -1.421875 0.28125 -1.578125 C 0.375 -1.742188 0.492188 -1.867188 0.640625 -1.953125 C 0.796875 -2.035156 0.972656 -2.078125 1.171875 -2.078125 C 1.367188 -2.078125 1.539062 -2.035156 1.6875 -1.953125 C 1.832031 -1.867188 1.945312 -1.75 2.03125 -1.59375 C 2.113281 -1.445312 2.15625 -1.285156 2.15625 -1.109375 Z M 1.796875 -1.171875 C 1.796875 -1.296875 1.765625 -1.40625 1.703125 -1.5 C 1.648438 -1.59375 1.578125 -1.664062 1.484375 -1.71875 C 1.390625 -1.769531 1.28125 -1.796875 1.15625 -1.796875 C 0.988281 -1.796875 0.84375 -1.738281 0.71875 -1.625 C 0.59375 -1.519531 0.523438 -1.367188 0.515625 -1.171875 Z M 1.796875 -1.171875 "/></g></g></g><g fill="#f7faff" fill-opacity="1"><g transform="translate(36.373939, 22.294171)"><g><path d="M 2.75 -2.078125 C 2.90625 -2.078125 3.046875 -2.046875 3.171875 -1.984375 C 3.296875 -1.921875 3.394531 -1.820312 3.46875 -1.6875 C 3.539062 -1.550781 3.578125 -1.390625 3.578125 -1.203125 L 3.578125 0 L 3.234375 0 L 3.234375 -1.15625 C 3.234375 -1.363281 3.179688 -1.519531 3.078125 -1.625 C 2.984375 -1.726562 2.851562 -1.78125 2.6875 -1.78125 C 2.507812 -1.78125 2.367188 -1.722656 2.265625 -1.609375 C 2.160156 -1.503906 2.109375 -1.34375 2.109375 -1.125 L 2.109375 0 L 1.765625 0 L 1.765625 -1.15625 C 1.765625 -1.363281 1.710938 -1.519531 1.609375 -1.625 C 1.515625 -1.726562 1.378906 -1.78125 1.203125 -1.78125 C 1.023438 -1.78125 0.882812 -1.722656 0.78125 -1.609375 C 0.675781 -1.503906 0.625 -1.34375 0.625 -1.125 L 0.625 0 L 0.28125 0 L 0.28125 -2.046875 L 0.625 -2.046875 L 0.625 -1.75 C 0.695312 -1.851562 0.785156 -1.929688 0.890625 -1.984375 C 1.003906 -2.046875 1.128906 -2.078125 1.265625 -2.078125 C 1.441406 -2.078125 1.59375 -2.039062 1.71875 -1.96875 C 1.851562 -1.894531 1.957031 -1.78125 2.03125 -1.625 C 2.082031 -1.769531 2.171875 -1.878906 2.296875 -1.953125 C 2.429688 -2.035156 2.582031 -2.078125 2.75 -2.078125 Z M 2.75 -2.078125 "/></g></g></g><g fill="#f7faff" fill-opacity="1"><g transform="translate(40.223969, 22.294171)"><g/></g></g><g fill="#f7faff" fill-opacity="1"><g transform="translate(41.221987, 22.294171)"><g><path d="M 0.625 -2.609375 L 0.625 0 L 0.28125 0 L 0.28125 -2.609375 Z M 0.625 -2.609375 "/></g></g></g><g fill="#f7faff" fill-opacity="1"><g transform="translate(42.14151, 22.294171)"><g><path d="M 1.28125 -2.078125 C 1.53125 -2.078125 1.734375 -2 1.890625 -1.84375 C 2.046875 -1.695312 2.125 -1.484375 2.125 -1.203125 L 2.125 0 L 1.78125 0 L 1.78125 -1.15625 C 1.78125 -1.363281 1.726562 -1.519531 1.625 -1.625 C 1.53125 -1.726562 1.394531 -1.78125 1.21875 -1.78125 C 1.03125 -1.78125 0.882812 -1.722656 0.78125 -1.609375 C 0.675781 -1.503906 0.625 -1.34375 0.625 -1.125 L 0.625 0 L 0.28125 0 L 0.28125 -2.046875 L 0.625 -2.046875 L 0.625 -1.75 C 0.695312 -1.851562 0.789062 -1.929688 0.90625 -1.984375 C 1.019531 -2.046875 1.144531 -2.078125 1.28125 -2.078125 Z M 1.28125 -2.078125 "/></g></g></g><g fill="#f7faff" fill-opacity="1"><g transform="translate(44.533761, 22.294171)"><g><path d="M 1.125 -1.765625 L 0.6875 -1.765625 L 0.6875 0 L 0.34375 0 L 0.34375 -1.765625 L 0.078125 -1.765625 L 0.078125 -2.046875 L 0.34375 -2.046875 L 0.34375 -2.1875 C 0.34375 -2.414062 0.398438 -2.582031 0.515625 -2.6875 C 0.640625 -2.800781 0.832031 -2.859375 1.09375 -2.859375 L 1.09375 -2.5625 C 0.945312 -2.5625 0.84375 -2.53125 0.78125 -2.46875 C 0.71875 -2.414062 0.6875 -2.320312 0.6875 -2.1875 L 0.6875 -2.046875 L 1.125 -2.046875 Z M 1.125 -1.765625 "/></g></g></g><g fill="#f7faff" fill-opacity="1"><g transform="translate(45.763528, 22.294171)"><g><path d="M 1.1875 0.03125 C 0.988281 0.03125 0.8125 -0.0078125 0.65625 -0.09375 C 0.5 -0.1875 0.375 -0.3125 0.28125 -0.46875 C 0.195312 -0.625 0.15625 -0.8125 0.15625 -1.03125 C 0.15625 -1.238281 0.203125 -1.421875 0.296875 -1.578125 C 0.390625 -1.742188 0.515625 -1.867188 0.671875 -1.953125 C 0.828125 -2.035156 1 -2.078125 1.1875 -2.078125 C 1.382812 -2.078125 1.5625 -2.035156 1.71875 -1.953125 C 1.875 -1.867188 2 -1.742188 2.09375 -1.578125 C 2.1875 -1.421875 2.234375 -1.238281 2.234375 -1.03125 C 2.234375 -0.8125 2.1875 -0.625 2.09375 -0.46875 C 2 -0.3125 1.867188 -0.1875 1.703125 -0.09375 C 1.546875 -0.0078125 1.375 0.03125 1.1875 0.03125 Z M 1.1875 -0.265625 C 1.300781 -0.265625 1.410156 -0.289062 1.515625 -0.34375 C 1.628906 -0.40625 1.71875 -0.492188 1.78125 -0.609375 C 1.84375 -0.722656 1.875 -0.863281 1.875 -1.03125 C 1.875 -1.1875 1.84375 -1.320312 1.78125 -1.4375 C 1.71875 -1.550781 1.632812 -1.632812 1.53125 -1.6875 C 1.425781 -1.75 1.3125 -1.78125 1.1875 -1.78125 C 1.0625 -1.78125 0.945312 -1.75 0.84375 -1.6875 C 0.738281 -1.632812 0.65625 -1.550781 0.59375 -1.4375 C 0.539062 -1.320312 0.515625 -1.1875 0.515625 -1.03125 C 0.515625 -0.863281 0.539062 -0.722656 0.59375 -0.609375 C 0.65625 -0.492188 0.738281 -0.40625 0.84375 -0.34375 C 0.945312 -0.289062 1.0625 -0.265625 1.1875 -0.265625 Z M 1.1875 -0.265625 "/></g></g></g><g fill="#f7faff" fill-opacity="1"><g transform="translate(48.155779, 22.294171)"><g><path d="M 0.625 -1.71875 C 0.6875 -1.832031 0.769531 -1.921875 0.875 -1.984375 C 0.988281 -2.046875 1.125 -2.078125 1.28125 -2.078125 L 1.28125 -1.734375 L 1.203125 -1.734375 C 0.816406 -1.734375 0.625 -1.523438 0.625 -1.109375 L 0.625 0 L 0.28125 0 L 0.28125 -2.046875 L 0.625 -2.046875 Z M 0.625 -1.71875 "/></g></g></g><g fill="#f7faff" fill-opacity="1"><g transform="translate(49.550011, 22.294171)"><g><path d="M 2.75 -2.078125 C 2.90625 -2.078125 3.046875 -2.046875 3.171875 -1.984375 C 3.296875 -1.921875 3.394531 -1.820312 3.46875 -1.6875 C 3.539062 -1.550781 3.578125 -1.390625 3.578125 -1.203125 L 3.578125 0 L 3.234375 0 L 3.234375 -1.15625 C 3.234375 -1.363281 3.179688 -1.519531 3.078125 -1.625 C 2.984375 -1.726562 2.851562 -1.78125 2.6875 -1.78125 C 2.507812 -1.78125 2.367188 -1.722656 2.265625 -1.609375 C 2.160156 -1.503906 2.109375 -1.34375 2.109375 -1.125 L 2.109375 0 L 1.765625 0 L 1.765625 -1.15625 C 1.765625 -1.363281 1.710938 -1.519531 1.609375 -1.625 C 1.515625 -1.726562 1.378906 -1.78125 1.203125 -1.78125 C 1.023438 -1.78125 0.882812 -1.722656 0.78125 -1.609375 C 0.675781 -1.503906 0.625 -1.34375 0.625 -1.125 L 0.625 0 L 0.28125 0 L 0.28125 -2.046875 L 0.625 -2.046875 L 0.625 -1.75 C 0.695312 -1.851562 0.785156 -1.929688 0.890625 -1.984375 C 1.003906 -2.046875 1.128906 -2.078125 1.265625 -2.078125 C 1.441406 -2.078125 1.59375 -2.039062 1.71875 -1.96875 C 1.851562 -1.894531 1.957031 -1.78125 2.03125 -1.625 C 2.082031 -1.769531 2.171875 -1.878906 2.296875 -1.953125 C 2.429688 -2.035156 2.582031 -2.078125 2.75 -2.078125 Z M 2.75 -2.078125 "/></g></g></g><g fill="#f7faff" fill-opacity="1"><g transform="translate(53.400042, 22.294171)"><g><path d="M 0.15625 -1.03125 C 0.15625 -1.238281 0.195312 -1.421875 0.28125 -1.578125 C 0.375 -1.734375 0.492188 -1.851562 0.640625 -1.9375 C 0.785156 -2.03125 0.945312 -2.078125 1.125 -2.078125 C 1.3125 -2.078125 1.46875 -2.035156 1.59375 -1.953125 C 1.726562 -1.878906 1.828125 -1.785156 1.890625 -1.671875 L 1.890625 -2.046875 L 2.234375 -2.046875 L 2.234375 0 L 1.890625 0 L 1.890625 -0.375 C 1.828125 -0.257812 1.726562 -0.160156 1.59375 -0.078125 C 1.457031 -0.00390625 1.300781 0.03125 1.125 0.03125 C 0.945312 0.03125 0.785156 -0.0078125 0.640625 -0.09375 C 0.492188 -0.1875 0.375 -0.3125 0.28125 -0.46875 C 0.195312 -0.632812 0.15625 -0.820312 0.15625 -1.03125 Z M 1.890625 -1.03125 C 1.890625 -1.1875 1.859375 -1.320312 1.796875 -1.4375 C 1.734375 -1.550781 1.648438 -1.632812 1.546875 -1.6875 C 1.441406 -1.75 1.328125 -1.78125 1.203125 -1.78125 C 1.078125 -1.78125 0.957031 -1.75 0.84375 -1.6875 C 0.738281 -1.632812 0.65625 -1.550781 0.59375 -1.4375 C 0.539062 -1.320312 0.515625 -1.1875 0.515625 -1.03125 C 0.515625 -0.875 0.539062 -0.738281 0.59375 -0.625 C 0.65625 -0.507812 0.738281 -0.421875 0.84375 -0.359375 C 0.957031 -0.296875 1.078125 -0.265625 1.203125 -0.265625 C 1.328125 -0.265625 1.441406 -0.296875 1.546875 -0.359375 C 1.648438 -0.421875 1.734375 -0.507812 1.796875 -0.625 C 1.859375 -0.738281 1.890625 -0.875 1.890625 -1.03125 Z M 1.890625 -1.03125 "/></g></g></g><g fill="#f7faff" fill-opacity="1"><g transform="translate(55.926858, 22.294171)"><g><path d="M 1.015625 0.03125 C 0.859375 0.03125 0.71875 0.00390625 0.59375 -0.046875 C 0.46875 -0.0976562 0.367188 -0.171875 0.296875 -0.265625 C 0.222656 -0.367188 0.179688 -0.476562 0.171875 -0.59375 L 0.53125 -0.59375 C 0.539062 -0.5 0.585938 -0.414062 0.671875 -0.34375 C 0.753906 -0.28125 0.867188 -0.25 1.015625 -0.25 C 1.140625 -0.25 1.238281 -0.273438 1.3125 -0.328125 C 1.382812 -0.390625 1.421875 -0.46875 1.421875 -0.5625 C 1.421875 -0.644531 1.378906 -0.707031 1.296875 -0.75 C 1.222656 -0.800781 1.101562 -0.847656 0.9375 -0.890625 C 0.78125 -0.921875 0.65625 -0.957031 0.5625 -1 C 0.46875 -1.039062 0.382812 -1.101562 0.3125 -1.1875 C 0.25 -1.269531 0.21875 -1.378906 0.21875 -1.515625 C 0.21875 -1.617188 0.25 -1.710938 0.3125 -1.796875 C 0.375 -1.878906 0.460938 -1.945312 0.578125 -2 C 0.691406 -2.050781 0.820312 -2.078125 0.96875 -2.078125 C 1.195312 -2.078125 1.378906 -2.019531 1.515625 -1.90625 C 1.648438 -1.789062 1.722656 -1.632812 1.734375 -1.4375 L 1.40625 -1.4375 C 1.394531 -1.539062 1.347656 -1.625 1.265625 -1.6875 C 1.191406 -1.757812 1.085938 -1.796875 0.953125 -1.796875 C 0.828125 -1.796875 0.726562 -1.769531 0.65625 -1.71875 C 0.59375 -1.664062 0.5625 -1.597656 0.5625 -1.515625 C 0.5625 -1.441406 0.582031 -1.382812 0.625 -1.34375 C 0.664062 -1.300781 0.71875 -1.265625 0.78125 -1.234375 C 0.851562 -1.210938 0.945312 -1.1875 1.0625 -1.15625 C 1.207031 -1.113281 1.328125 -1.070312 1.421875 -1.03125 C 1.515625 -0.988281 1.59375 -0.929688 1.65625 -0.859375 C 1.71875 -0.785156 1.753906 -0.6875 1.765625 -0.5625 C 1.765625 -0.445312 1.734375 -0.34375 1.671875 -0.25 C 1.609375 -0.164062 1.519531 -0.0976562 1.40625 -0.046875 C 1.289062 0.00390625 1.160156 0.03125 1.015625 0.03125 Z M 1.015625 0.03125 "/></g></g></g><g fill="#f7faff" fill-opacity="1"><g transform="translate(57.878036, 22.294171)"><g><path d="M 0.46875 -2.375 C 0.394531 -2.375 0.335938 -2.394531 0.296875 -2.4375 C 0.253906 -2.488281 0.234375 -2.546875 0.234375 -2.609375 C 0.234375 -2.671875 0.253906 -2.722656 0.296875 -2.765625 C 0.335938 -2.816406 0.394531 -2.84375 0.46875 -2.84375 C 0.53125 -2.84375 0.582031 -2.816406 0.625 -2.765625 C 0.664062 -2.722656 0.6875 -2.671875 0.6875 -2.609375 C 0.6875 -2.546875 0.664062 -2.488281 0.625 -2.4375 C 0.582031 -2.394531 0.53125 -2.375 0.46875 -2.375 Z M 0.625 -2.046875 L 0.625 0 L 0.28125 0 L 0.28125 -2.046875 Z M 0.625 -2.046875 "/></g></g></g><g fill="#f7faff" fill-opacity="1"><g transform="translate(58.797559, 22.294171)"><g/></g></g><g fill="#f7faff" fill-opacity="1"><g transform="translate(59.795577, 22.294171)"><g><path d="M 1.59375 -1.34375 C 1.6875 -1.320312 1.769531 -1.28125 1.84375 -1.21875 C 1.925781 -1.15625 1.988281 -1.078125 2.03125 -0.984375 C 2.082031 -0.898438 2.109375 -0.804688 2.109375 -0.703125 C 2.109375 -0.566406 2.070312 -0.445312 2 -0.34375 C 1.9375 -0.238281 1.835938 -0.15625 1.703125 -0.09375 C 1.578125 -0.03125 1.429688 0 1.265625 0 L 0.28125 0 L 0.28125 -2.609375 L 1.21875 -2.609375 C 1.394531 -2.609375 1.546875 -2.578125 1.671875 -2.515625 C 1.796875 -2.453125 1.890625 -2.367188 1.953125 -2.265625 C 2.015625 -2.171875 2.046875 -2.0625 2.046875 -1.9375 C 2.046875 -1.78125 2.003906 -1.648438 1.921875 -1.546875 C 1.835938 -1.453125 1.726562 -1.382812 1.59375 -1.34375 Z M 0.625 -1.484375 L 1.203125 -1.484375 C 1.359375 -1.484375 1.476562 -1.519531 1.5625 -1.59375 C 1.65625 -1.664062 1.703125 -1.769531 1.703125 -1.90625 C 1.703125 -2.03125 1.65625 -2.128906 1.5625 -2.203125 C 1.476562 -2.285156 1.351562 -2.328125 1.1875 -2.328125 L 0.625 -2.328125 Z M 1.234375 -0.28125 C 1.398438 -0.28125 1.53125 -0.316406 1.625 -0.390625 C 1.71875 -0.472656 1.765625 -0.585938 1.765625 -0.734375 C 1.765625 -0.878906 1.710938 -0.992188 1.609375 -1.078125 C 1.515625 -1.160156 1.382812 -1.203125 1.21875 -1.203125 L 0.625 -1.203125 L 0.625 -0.28125 Z M 1.234375 -0.28125 "/></g></g></g><g fill="#f7faff" fill-opacity="1"><g transform="translate(62.086904, 22.294171)"><g><path d="M 0.46875 -2.375 C 0.394531 -2.375 0.335938 -2.394531 0.296875 -2.4375 C 0.253906 -2.488281 0.234375 -2.546875 0.234375 -2.609375 C 0.234375 -2.671875 0.253906 -2.722656 0.296875 -2.765625 C 0.335938 -2.816406 0.394531 -2.84375 0.46875 -2.84375 C 0.53125 -2.84375 0.582031 -2.816406 0.625 -2.765625 C 0.664062 -2.722656 0.6875 -2.671875 0.6875 -2.609375 C 0.6875 -2.546875 0.664062 -2.488281 0.625 -2.4375 C 0.582031 -2.394531 0.53125 -2.375 0.46875 -2.375 Z M 0.625 -2.046875 L 0.625 0 L 0.28125 0 L 0.28125 -2.046875 Z M 0.625 -2.046875 "/></g></g></g><g fill="#f7faff" fill-opacity="1"><g transform="translate(63.006427, 22.294171)"><g><path d="M 2.75 -2.078125 C 2.90625 -2.078125 3.046875 -2.046875 3.171875 -1.984375 C 3.296875 -1.921875 3.394531 -1.820312 3.46875 -1.6875 C 3.539062 -1.550781 3.578125 -1.390625 3.578125 -1.203125 L 3.578125 0 L 3.234375 0 L 3.234375 -1.15625 C 3.234375 -1.363281 3.179688 -1.519531 3.078125 -1.625 C 2.984375 -1.726562 2.851562 -1.78125 2.6875 -1.78125 C 2.507812 -1.78125 2.367188 -1.722656 2.265625 -1.609375 C 2.160156 -1.503906 2.109375 -1.34375 2.109375 -1.125 L 2.109375 0 L 1.765625 0 L 1.765625 -1.15625 C 1.765625 -1.363281 1.710938 -1.519531 1.609375 -1.625 C 1.515625 -1.726562 1.378906 -1.78125 1.203125 -1.78125 C 1.023438 -1.78125 0.882812 -1.722656 0.78125 -1.609375 C 0.675781 -1.503906 0.625 -1.34375 0.625 -1.125 L 0.625 0 L 0.28125 0 L 0.28125 -2.046875 L 0.625 -2.046875 L 0.625 -1.75 C 0.695312 -1.851562 0.785156 -1.929688 0.890625 -1.984375 C 1.003906 -2.046875 1.128906 -2.078125 1.265625 -2.078125 C 1.441406 -2.078125 1.59375 -2.039062 1.71875 -1.96875 C 1.851562 -1.894531 1.957031 -1.78125 2.03125 -1.625 C 2.082031 -1.769531 2.171875 -1.878906 2.296875 -1.953125 C 2.429688 -2.035156 2.582031 -2.078125 2.75 -2.078125 Z M 2.75 -2.078125 "/></g></g></g><g fill="#f7faff" fill-opacity="1"><g transform="translate(66.856458, 22.294171)"><g><path d="M 0.15625 -1.03125 C 0.15625 -1.238281 0.195312 -1.421875 0.28125 -1.578125 C 0.375 -1.734375 0.492188 -1.851562 0.640625 -1.9375 C 0.785156 -2.03125 0.945312 -2.078125 1.125 -2.078125 C 1.3125 -2.078125 1.46875 -2.035156 1.59375 -1.953125 C 1.726562 -1.878906 1.828125 -1.785156 1.890625 -1.671875 L 1.890625 -2.046875 L 2.234375 -2.046875 L 2.234375 0 L 1.890625 0 L 1.890625 -0.375 C 1.828125 -0.257812 1.726562 -0.160156 1.59375 -0.078125 C 1.457031 -0.00390625 1.300781 0.03125 1.125 0.03125 C 0.945312 0.03125 0.785156 -0.0078125 0.640625 -0.09375 C 0.492188 -0.1875 0.375 -0.3125 0.28125 -0.46875 C 0.195312 -0.632812 0.15625 -0.820312 0.15625 -1.03125 Z M 1.890625 -1.03125 C 1.890625 -1.1875 1.859375 -1.320312 1.796875 -1.4375 C 1.734375 -1.550781 1.648438 -1.632812 1.546875 -1.6875 C 1.441406 -1.75 1.328125 -1.78125 1.203125 -1.78125 C 1.078125 -1.78125 0.957031 -1.75 0.84375 -1.6875 C 0.738281 -1.632812 0.65625 -1.550781 0.59375 -1.4375 C 0.539062 -1.320312 0.515625 -1.1875 0.515625 -1.03125 C 0.515625 -0.875 0.539062 -0.738281 0.59375 -0.625 C 0.65625 -0.507812 0.738281 -0.421875 0.84375 -0.359375 C 0.957031 -0.296875 1.078125 -0.265625 1.203125 -0.265625 C 1.328125 -0.265625 1.441406 -0.296875 1.546875 -0.359375 C 1.648438 -0.421875 1.734375 -0.507812 1.796875 -0.625 C 1.859375 -0.738281 1.890625 -0.875 1.890625 -1.03125 Z M 1.890625 -1.03125 "/></g></g></g></svg>